<svg id="Layer_1" data-name="Layer 1" xmlns="http://www.w3.org/2000/svg" viewBox="0 0 100 100"><defs><style>.cls-1{fill:#356385;}</style></defs><path class="cls-1" d="M47.18,35.06a8.29,8.29,0,0,0-8.27,8.25,8.06,8.06,0,0,0,7.83,8.21,8.28,8.28,0,0,0,8.56-8,8.48,8.48,0,0,0-8.12-8.49m.1-5.45c1.62-3.54,3-6.46,7.44-3.95C57.09,27,58.78,27.94,57.36,31c-.8,1.71-.34,3.08,1.85,2.09,4.22-1.89,4.74,1.31,6,3.91,1.59,3.25-.56,4.19-2.81,5.24A9.51,9.51,0,0,0,61,43.29a12,12,0,0,0,1.26,1.06c3.66,2.21,4.12,6.2,1.1,9.1-1.34,1.29-2.78.67-4,.17-2.21-.87-2.87-.06-2,1.85,1.41,3.17,0,4.44-2.78,5.58s-5,1.45-6.23-2c-.45-1.28-1.6-2.15-2.36-.2-1.35,3.49-3.43,3.49-6.54,2.24s-3.76-2.82-2.61-5.75c.82-2.08-.37-2.31-2-1.65-3.43,1.41-4.57-.61-5.73-3.35s-.86-4.46,2-5.58c2-.77,2.23-1.87,0-2.72C28,40.76,28,38.84,29.24,36.06c1.16-2.57,2.14-4.54,5.47-3,1,.46,3.25,1.06,2.16-1.34-1.93-4.25.67-5.14,3.69-6.5,3.53-1.6,4.37.79,5.54,3a12.57,12.57,0,0,0,1.18,1.39"/><path class="cls-1" d="M83.36,56.25c-2.85-3.36-5.43-6.34-7.94-9.37-1.29-1.55-2.61-3.35-1.78-5.37,1.69-4.11-.11-7.48-1.93-10.79-5.39-9.8-13.87-14.38-25-14.31-1.05,0-2.11.06-3.16.15-1.74.14-3.38-.16-3.39-2.25,0-1.75,1.44-2.2,3-2.41a32.4,32.4,0,0,1,35.26,23c.32,1.13,1,2.57.58,3.44-2.15,4.55,1,7,3.47,9.84,1.46,1.69,3,3.3,4.36,5.1,2.21,3,1.8,5.36-1.43,7.18-1.4.79-1.24,1.39-1.34,2.84-.25,3.61,1.73,7.94-2.64,10.65-1.24.78-.28,2.17-.06,3.28.75,3.88-.78,7.26-4.61,7.92-10,1.72-19.4.25-27.32-6.66a13.74,13.74,0,0,1-3.93-7.19c-.36-1.39-.14-2.71,1.46-3.19A2.21,2.21,0,0,1,50,70c1.58,6.24,6.32,8.71,12,10,3.84.91,7.73,1.76,11.71,1.26,2.31-.29,4.14-1.14,3-4.14-.94-2.41-.17-4.33,1.22-6.57a10.59,10.59,0,0,0,1-6.93c-.94-4.15.78-5.89,4.47-7.37"/><path class="cls-1" d="M24.1,23.14a6.08,6.08,0,0,0,6.15-5.85,6.16,6.16,0,1,0-12.31,0,6.14,6.14,0,0,0,6.16,5.84m6.81-12.66c2.9-1.42,4.55-1,5.61,1.73,1,2.54-.08,3.68-2.57,4.7,2.31,1.48,3.85,2.78,2.34,5.69-1.29,2.49-2.86,2.15-5.24,1.25.63,2.6,1.09,4.52-1.9,5.65-2.74,1-3.78-.31-5-2.59-1.31,2.21-2.33,3.74-5.08,2.57s-2.6-2.82-2.08-5.32c-2.48.7-4.16.59-5.23-2s.18-3.9,2.68-4.94c-2.72-1.39-3.79-2.76-2.5-5.54,1.17-2.52,2.74-2.34,5.2-1.24-1-3.07-.49-4.75,2.4-5.88s3.22,1.32,4.75,2.61c1.07-1.89,1.9-3.61,4.75-2.49s2.83,2.89,1.89,5.82"/><path class="cls-1" d="M24.8,93.52c.17-1.17.54-3.12.75-5.07A43.27,43.27,0,0,0,22,65.74c-3.7-8.22-6.42-16.69-5.84-25.88a48.21,48.21,0,0,1,.68-5.07,2.18,2.18,0,0,1,2.41-2.09,2.24,2.24,0,0,1,2.07,2.82c-2.07,10.63,1.27,20.26,5.44,29.74s4.39,19.1,2.61,29c-.27,1.49-.82,3-2.65,2.86-1.58-.1-2.16-1.3-1.91-3.61"/></svg>