<svg id="Layer_1" data-name="Layer 1" xmlns="http://www.w3.org/2000/svg" viewBox="0 0 100 100"><defs><style>.cls-1{fill:#d1ab8f;}</style></defs><path class="cls-1" d="M47.18,35.22a8.29,8.29,0,0,0-8.27,8.25,8.05,8.05,0,0,0,7.83,8.2,8.26,8.26,0,0,0,8.56-8,8.48,8.48,0,0,0-8.12-8.49m.1-5.45c1.62-3.54,3-6.46,7.44-3.95,2.37,1.35,4.06,2.28,2.64,5.32-.8,1.71-.34,3.07,1.85,2.09,4.22-1.9,4.74,1.31,6,3.91,1.59,3.25-.56,4.19-2.81,5.24A9.51,9.51,0,0,0,61,43.45a12,12,0,0,0,1.26,1.06c3.66,2.21,4.12,6.2,1.1,9.1-1.34,1.29-2.78.67-4,.17-2.21-.87-2.87-.06-2,1.84,1.41,3.18,0,4.45-2.78,5.59s-5,1.45-6.23-2.05C47.86,57.88,46.71,57,46,59c-1.35,3.49-3.43,3.49-6.54,2.23s-3.76-2.81-2.61-5.74c.82-2.08-.37-2.32-2-1.65-3.43,1.41-4.57-.61-5.73-3.35s-.86-4.46,2-5.58c2-.77,2.23-1.87,0-2.72C28,40.92,28,39,29.24,36.22c1.16-2.57,2.14-4.54,5.47-3,1,.46,3.25,1.07,2.16-1.33-1.93-4.25.67-5.14,3.69-6.5,3.53-1.6,4.37.79,5.54,3a12.57,12.57,0,0,0,1.18,1.39"/><path class="cls-1" d="M83.36,56.41c-2.85-3.36-5.43-6.34-7.94-9.37-1.29-1.55-2.61-3.35-1.78-5.38,1.69-4.1-.11-7.47-1.93-10.78-5.39-9.81-13.87-14.39-25-14.31-1.05,0-2.11.06-3.16.15-1.74.14-3.38-.17-3.39-2.26,0-1.75,1.44-2.19,3-2.4a32.4,32.4,0,0,1,35.26,23c.32,1.13,1,2.57.58,3.43-2.15,4.56,1,7,3.47,9.85,1.46,1.69,3,3.3,4.36,5.1,2.21,3,1.8,5.35-1.43,7.18-1.4.79-1.24,1.39-1.34,2.84-.25,3.61,1.73,7.93-2.64,10.65-1.24.78-.28,2.16-.06,3.28.75,3.88-.78,7.26-4.61,7.92-10,1.71-19.4.25-27.32-6.67a13.67,13.67,0,0,1-3.93-7.18c-.36-1.39-.14-2.72,1.46-3.19a2.21,2.21,0,0,1,3,1.82c1.58,6.25,6.32,8.71,12,10,3.84.91,7.73,1.76,11.71,1.26,2.31-.29,4.14-1.14,3-4.15-.94-2.4-.17-4.33,1.22-6.56a10.6,10.6,0,0,0,1-6.93c-.94-4.15.78-5.89,4.47-7.37"/><path class="cls-1" d="M24.1,23.3a6.05,6.05,0,1,0-6.16-5.85A6.09,6.09,0,0,0,24.1,23.3m6.81-12.66c2.9-1.43,4.55-1,5.61,1.73,1,2.54-.08,3.68-2.57,4.7,2.31,1.48,3.85,2.78,2.34,5.69C35,25.25,33.43,24.9,31.05,24c.63,2.59,1.09,4.52-1.9,5.64-2.74,1-3.78-.3-5-2.58-1.31,2.2-2.33,3.74-5.08,2.57s-2.6-2.83-2.08-5.32c-2.48.7-4.16.58-5.23-2-1.13-2.76.18-3.9,2.68-4.95-2.72-1.38-3.79-2.75-2.5-5.53,1.17-2.53,2.74-2.34,5.2-1.25-1-3.06-.49-4.75,2.4-5.87S22.74,6,24.27,7.3c1.07-1.88,1.9-3.6,4.75-2.48s2.83,2.89,1.89,5.82"/><path class="cls-1" d="M24.8,93.68c.17-1.18.54-3.12.75-5.08A43.23,43.23,0,0,0,22,65.9c-3.7-8.22-6.42-16.69-5.84-25.88A48.21,48.21,0,0,1,16.83,35a2.18,2.18,0,0,1,2.41-2.09,2.24,2.24,0,0,1,2.07,2.82c-2.07,10.63,1.27,20.25,5.44,29.74s4.39,19.1,2.61,29c-.27,1.49-.82,3-2.65,2.85-1.58-.09-2.16-1.29-1.91-3.6"/></svg>