<svg id="Layer_1" data-name="Layer 1" xmlns="http://www.w3.org/2000/svg" viewBox="0 0 100 100"><defs><style>.cls-1{fill:#356385;}</style></defs><path class="cls-1" d="M23.21,63l.4,0a1,1,0,0,1-.32.09,1.75,1.75,0,0,1-.38-.09l.3,0m2,1.46c1.13,3.09,2.24,5.94,6.22,5.52.46,0,1.2.67,1.49,1.21,1.74,3.28,5.9,2.61,8.18,5A1.24,1.24,0,0,0,42.91,76c.34-.6,0-1.66-.52-1.71-3.66-.33-5.1-2.75-6.06-5.86-.24-.78-1.3-.77-2.12-.76s-2.18.06-2.55-.82c-1.32-3.19-4-2.35-6.42-2.35m4.65-29.41c3.33,2,6.18.22,9-1.08,8.74-4,16.85-2.94,24.44,2.83,5.37,4.09,9.57,9.28,13.83,14.43,1,1.15,1.51,2.82,3.7,3.24-1.76-6.66-3.45-13.08-5.15-19.5-.17-.64-.41-1.27-.53-1.93-.26-1.32-1.28-1.47-2.35-1.78C67.2,29.68,61.58,28,56,26.34c-9.17-2.69-19.82.83-26.06,8.73M24.6,32.31c-1.75,6.51-3.36,13.06-5.32,19.51-1,3.37.28,4.45,3.3,5.27C26.08,58,29.84,59,32.7,61,36,63.36,41,63.78,42,68.89c.06.26.95.35,1.45.54a6.45,6.45,0,0,1,3.8,3.8,5,5,0,0,0,7.67,1.93,26.35,26.35,0,0,1,3.36-2c3.54-2.11,5.66-6.27,10.16-7.08.25,0,.54-.65.56-1,.18-2.53,1.83-3,4-3.54,3-.72,3.79-3.14,2-5.45C70.67,50.5,66.24,45,60.59,40.58c-6.15-4.77-12.72-5.82-19.85-2.29a18.07,18.07,0,0,1-7.24,2.16c-6.17.28-8.48-1.88-8.9-8.14M16.5,59.7c-4.17,1.24-7.8-.78-11.49-2-2.11-.72-2.91-2.78-2.34-5q3.66-14,7.48-27.89c.72-2.58,2.78-3.86,5.27-3.07,3.55,1.12,7.61,1,10.18,4.84,1.08,1.63,3.88,2.13,6.14.74,1.48-.91,3-1.77,4.43-2.76A22.17,22.17,0,0,1,56.8,21.69c4.82,1.6,9.74,2.91,14.59,4.44a3.25,3.25,0,0,0,3.77-.95c2.83-2.61,6.67-3.27,10.4-3.51,2.32-.15,3.49,1.68,4.06,3.78C92,34.22,94.4,43,96.73,51.78c.86,3.22-.15,5.68-3.58,6.42s-6.57,3.39-10.33.92c-1-.68-2,.24-2.49,1.34-2.09,4.89-6.88,7.35-10.66,10.21S62.64,77.5,57.8,79c-.36.11-.62.63-1,.68-6.59,1-13.15,2.49-19.78-.09-3.81-1.48-6.72-4.45-10.66-5.73C22.28,72.47,16.56,64,16.5,59.7"/></svg>