<svg id="Layer_1" data-name="Layer 1" xmlns="http://www.w3.org/2000/svg" viewBox="0 0 100 100"><defs><style>.cls-1{fill:#d1ab8f;}</style></defs><path class="cls-1" d="M24,67.07l.4.05a1.07,1.07,0,0,1-.32.1,1.4,1.4,0,0,1-.39-.1l.31-.05m2,1.47c1.13,3.08,2.25,5.93,6.23,5.52.45,0,1.19.67,1.48,1.21,1.75,3.28,5.91,2.61,8.19,5A1.24,1.24,0,0,0,43.67,80c.33-.6,0-1.66-.53-1.7-3.66-.34-5.1-2.75-6-5.86-.25-.79-1.31-.78-2.13-.77s-2.18.07-2.54-.81c-1.33-3.19-4-2.35-6.43-2.35m4.66-29.41c3.32,1.95,6.18.22,9-1.08,8.75-4,16.85-2.94,24.44,2.83,5.38,4.08,9.57,9.28,13.84,14.43.95,1.15,1.51,2.82,3.7,3.24-1.76-6.66-3.46-13.08-5.15-19.5-.17-.64-.41-1.28-.54-1.93-.25-1.32-1.27-1.48-2.34-1.78C68,33.73,62.33,32.05,56.7,30.4c-9.17-2.7-19.82.83-26.05,8.73m-5.29-2.76C23.61,42.88,22,49.43,20,55.88c-1,3.37.28,4.45,3.29,5.27,3.5,1,7.27,1.89,10.13,3.94,3.24,2.33,8.34,2.75,9.32,7.85,0,.27.95.35,1.44.54A6.48,6.48,0,0,1,48,77.29a5,5,0,0,0,7.67,1.92,26.16,26.16,0,0,1,3.35-2c3.54-2.11,5.66-6.27,10.16-7.08.25,0,.54-.65.57-1,.18-2.53,1.82-3,4-3.54,3-.72,3.79-3.14,2-5.45C71.43,54.56,67,49,61.35,44.64c-6.15-4.78-12.73-5.82-19.85-2.29a17.94,17.94,0,0,1-7.24,2.15c-6.18.28-8.48-1.87-8.9-8.13M17.25,63.76C13.09,65,9.46,63,5.76,61.72c-2.11-.71-2.91-2.78-2.33-5,2.44-9.31,4.91-18.61,7.48-27.88.71-2.58,2.77-3.86,5.27-3.07,3.55,1.12,7.61,1,10.17,4.84,1.09,1.63,3.89,2.13,6.15.74,1.48-.91,3-1.78,4.42-2.76a22.16,22.16,0,0,1,20.64-2.86c4.82,1.59,9.73,2.9,14.58,4.43a3.26,3.26,0,0,0,3.78-.94c2.83-2.62,6.66-3.27,10.39-3.51,2.33-.15,3.5,1.67,4.07,3.77,2.38,8.78,4.77,17.55,7.11,26.33.85,3.23-.16,5.69-3.59,6.42s-6.57,3.4-10.33.93c-1-.68-2,.24-2.49,1.34C79,69.4,74.2,71.87,70.42,74.73s-7,6.83-11.86,8.28c-.36.11-.63.62-1,.68-6.59,1-13.14,2.49-19.78-.09-3.8-1.48-6.71-4.46-10.65-5.74C23,76.53,17.31,68,17.25,63.76"/></svg>