<svg id="Layer_1" data-name="Layer 1" xmlns="http://www.w3.org/2000/svg" viewBox="0 0 100 100"><defs><style>.cls-1{fill:#d1ab8f;}</style></defs><path class="cls-1" d="M64.09,36.08c-1.47.07-2.84.57-3.1,2.37a2.47,2.47,0,0,0,2.44,3,8.36,8.36,0,0,1,6.88,4.27,2.55,2.55,0,0,0,3.8,1c1.66-1.07,1.66-2.58.67-4.21a13.23,13.23,0,0,0-10.69-6.53m-2.3,55.61a9.42,9.42,0,0,0,1.91-.18c3-.76,5.25-2.54,5.82-5.54.39-2.08,2.13-5.12-2.1-5.9-.76-.14-.47-1.42-.43-2.21.38-6.73,1-13.42,3.27-19.84.44-1.27,1.14-2.58,0-3.77s-2.46-.39-3.7.12a12.64,12.64,0,0,1-10.19.14c-1.2-.51-2.42-1.57-3.72-.46s-.62,2.7-.17,4.1a65.16,65.16,0,0,1,3,19.45c0,1.25.54,2.87-1.71,2.83-1.58,0-1.48,1.16-1.55,2.27-.33,5.33,3.37,9,9.51,9M83.84,54.83c-.07,3.84-2.79,9.69-8.22,14.08A5.6,5.6,0,0,0,73.25,74c.15,3.36.13,6.74,0,10.11-.24,6.65-5,10.91-12,11-7.19,0-12-4.29-12.35-11a32,32,0,0,1,0-4c.44-5.34-.45-9.61-4.82-13.83C36.71,59,36.46,47.5,42.09,39A22.69,22.69,0,0,1,68,29.7c9.59,3,16,11.83,15.89,25.13"/><path class="cls-1" d="M12.42,47.93c-.16.3-.54.7-.45.88C15.53,56.52,25.51,62,34.2,61c1.46-.17,2.8-.17,3.26,1.48.55,2-.93,2.71-2.41,3A19.12,19.12,0,0,1,21.71,63.8C13.07,59.32,7.56,52,3.4,43.44c-.78-1.6-.64-3.29,1.19-3.53,8.25-1.11,16-5,24.61-4.06a22.78,22.78,0,0,1,6.62,1.68c1.33.56,2.44,1.45,1.86,3.08-.65,1.81-2,1.77-3.62,1.12-8.17-3.23-15.89-.17-23.69,1.81-.64.16-1.53.55-1,1.29.83,1.22.79,3.43,3.13,3.16Z"/><path class="cls-1" d="M35.15,16.37c-3,4.05-2.77,8.69-2.17,13.31.21,1.67.89,3.42-1.27,4-2.38.6-2.81-1.32-3.17-3.12-1.81-8.93,1.43-16.65,5.87-24,.74-1.25,2.24-2,3.38-.67,4.27,5,10,8.66,13.33,14.52a7.37,7.37,0,0,1,.72,1.43c.63,1.93,2.57,4.37-.34,5.57s-2.79-2-3.76-3.58c-2-3.29-3.75-6.85-7.8-8.2l.07.09c.48-1.05,0-1.2-.87-.88l.06.06c.06-1.69-1.49-2.92-2.36-2.55a3.52,3.52,0,0,0-1.73,4.17Z"/><path class="cls-1" d="M12.48,48c.28-4.24,1.18-4.81,4.77-2.81a49.76,49.76,0,0,0,16.55,6c1.6.26,3.1.79,2.84,2.66-.29,2.09-1.94,2.13-3.72,1.86-7.4-1.11-14-4.4-20.5-7.75l.06.06"/><path class="cls-1" d="M39.94,15.55a64.23,64.23,0,0,0,3.52,15.73c.56,1.52,1,3-.87,3.76-2.07.85-2.79-.69-3.45-2.32-2.11-5.26-2.7-10.89-4-16.35l0,.07c1.33-.63,2.4-1.91,4.09-1.62l-.06-.06c-.1.69.32.85.87.88Z"/><path class="cls-1" d="M93.78,54.7c-2-.06-4.39.18-4.44-2.74s2.2-2.91,4.3-3,4.39.1,4.47,2.81-2.23,2.88-4.33,2.88"/><path class="cls-1" d="M58.32,19.39c0-2.31.2-4.41,2.68-4.43,3,0,3,2.44,3,4.66,0,2-.18,4.05-2.73,4.1-3.21.06-2.86-2.52-3-4.33"/><path class="cls-1" d="M42.16,74c-1.08,2.19-2.46,4.38-5.25,4.75A2.26,2.26,0,0,1,34.27,76a6.09,6.09,0,0,1,5.08-5c1.63-.26,2.58,1.14,2.81,3"/><path class="cls-1" d="M88.22,75.79c-.41,2.12-1.41,3.41-3.1,2.95-2.55-.7-4.58-2.4-4.83-5.23A2.34,2.34,0,0,1,83.2,71a7.75,7.75,0,0,1,5,4.83"/><path class="cls-1" d="M88.15,27.85a7,7,0,0,1-5,4.87,2.23,2.23,0,0,1-2.86-2.49A6,6,0,0,1,85.15,25c1.6-.43,2.72.78,3,2.83"/><path class="cls-1" d="M62.24,59.94c2.33-.83,2.91-.13,2.23,2.66a68.73,68.73,0,0,0-1.86,15.54c0,1,.19,2.35-1.5,2.18-1.44-.15-.92-1.39-1-2.22-.53-4.65-.91-9.33-1.56-14-.56-4-.7-4,3.7-4.19"/><path class="cls-1" d="M60.59,87.58c-1.74-.59-5.46,1.42-5.43-2.3s3.68-2,5.82-2.29a17.52,17.52,0,0,1,3.62,0c1.49.09,2.75.73,2.71,2.36s-1.24,2.24-2.78,2.22H60.59"/></svg>