<svg id="Layer_1" data-name="Layer 1" xmlns="http://www.w3.org/2000/svg" viewBox="0 0 100 100"><defs><style>.cls-1{fill:#d1ab8f;}</style></defs><path class="cls-1" d="M80.77,40.46h0c0-1.07,0-2.15,0-3.22.07-1.63-.29-3.15-2.16-3.23s-2.23,1.53-2.23,3.11c0,2.41,0,4.82,0,7.23,0,1.37.57,2.4,2.09,2.41a2.05,2.05,0,0,0,2.22-2.28c0-1.34,0-2.68,0-4m0,17.65V55.7c0-1.53-.55-2.71-2.26-2.68s-2.1,1.34-2.11,2.82c0,.8-.08,1.6-.1,2.4-.15,5.75-2.39,10.25-7.39,13.44-5.87,3.74-11.6,7.7-17.28,11.73-1.86,1.32-3.19,1.24-5-.07C43.55,81,40.24,79,37,76.82c-1.38-.93-2.89-2-4.18-.18s.23,2.91,1.61,3.84c4.12,2.75,8.29,5.43,12.34,8.28,1.86,1.3,3.3,1,5.07-.18,6.72-4.65,13.5-9.2,20.3-13.73,6-4,8.49-9.75,8.62-16.74m-31,2.17a5.39,5.39,0,0,0,4.31-2.2q7.79-9.21,15.58-18.4c1.22-1.43,2.15-3,.53-4.59s-3.13-1-4.62.28c-3.26,2.78-6.55,5.53-9.81,8.31-5.67,4.82-5.66,4.82-11.84,1a21.71,21.71,0,0,0-2.81-1.51,2.86,2.86,0,0,0-3.3.79c-.89.89-1.63,2.13-.84,3.25,3.3,4.69,6.88,9.18,11.47,12.72a3.41,3.41,0,0,0,1.33.36m-.4,6.48a16.63,16.63,0,1,1,.2-33.25,16.28,16.28,0,0,1,8,2.2c1.38.8,2.9,1.27,3.78-.51s-.39-2.71-1.78-3.46c-.59-.32-1.17-.66-1.78-.93a21.16,21.16,0,1,0-3,39.7c9.08-2.57,15.61-11.08,15.48-20.2,0-1.71.26-3.84-2.32-3.83-2.27,0-2.2,1.87-2.19,3.53a15,15,0,0,1-.13,2A16.5,16.5,0,0,1,49.34,66.76m-31.71-23h.13c0,5.49-.17,11,0,16.48a17.45,17.45,0,0,0,6,12.74c1.2,1.07,2.52,1.69,3.81.13s.28-2.44-.78-3.4A14.39,14.39,0,0,1,22.11,59c-.16-9.25,0-18.5-.11-27.75,0-1.84.56-2.62,2.39-2.87,8.23-1.09,15.18-5.12,21.68-9.94,2.24-1.66,3.7-2.09,6.11-.14A51.13,51.13,0,0,0,68,26.94a26.73,26.73,0,0,0,10.24,1.73c1.46-.09,2.67-.83,2.52-2.52-.13-1.42-1.21-2-2.57-2-10-.05-17.86-5.18-25.29-11-2.69-2.11-4.39-2.32-7.21-.08C38.25,19,30.39,24.1,20.39,24.15c-2.42,0-2.77,1.59-2.76,3.53,0,5.36,0,10.72,0,16.09m69.29-2.3c-.31,6.06.55,13.45-.44,20.79A23.8,23.8,0,0,1,76,79.56c-8,5.43-16,10.72-24,16.22-2.11,1.47-3.64,1.33-5.7-.1C38.58,90.32,30.78,85.11,23,79.92S11.72,67.49,11.6,58.5c-.18-12.33,0-24.67-.08-37,0-2.24.12-4.26,3.12-3.77C27.64,19.86,37,13,45.71,4.94c2.89-2.7,4.51-2.52,7.09.18A52.38,52.38,0,0,0,68.61,16a23.81,23.81,0,0,0,14.14,1.74c3.14-.5,4.33.68,4.23,3.93-.2,6.16-.06,12.33-.06,19.8"/></svg>